<svg width="511" height="511" viewBox="0 0 511 511" fill="none" xmlns="http://www.w3.org/2000/svg">
<path d="M509.602 150.235C508.405 123.084 504.015 104.418 497.725 88.243C491.236 71.074 481.254 55.7027 468.175 42.9244C455.397 29.9473 439.924 19.8635 422.954 13.4763C406.686 7.18656 388.117 2.79586 360.966 1.59875C333.612 0.300252 324.928 0 255.55 0C186.172 0 177.488 0.300252 150.235 1.49736C123.084 2.69447 104.418 7.08908 88.2469 13.3749C71.074 19.8635 55.7027 29.8459 42.9244 42.9244C29.9473 55.7027 19.8674 71.1754 13.4763 88.1455C7.18656 104.418 2.79586 122.983 1.59875 150.134C0.300252 177.488 0 186.172 0 255.55C0 324.928 0.300252 333.612 1.49736 360.864C2.69447 388.016 7.08908 406.682 13.3788 422.857C19.8674 440.026 29.9473 455.397 42.9244 468.175C55.7027 481.153 71.1754 491.236 88.1455 497.624C104.418 503.913 122.983 508.304 150.138 509.501C177.387 510.702 186.075 510.998 255.452 510.998C324.83 510.998 333.514 510.702 360.767 509.501C387.918 508.304 406.585 503.913 422.755 497.624C457.097 484.346 484.249 457.195 497.526 422.857C503.812 406.585 508.206 388.016 509.404 360.864C510.601 333.612 510.901 324.928 510.901 255.55C510.901 186.172 510.8 177.488 509.602 150.235ZM463.586 358.868C462.486 383.824 458.294 397.3 454.801 406.284C446.214 428.546 428.546 446.214 406.284 454.801C397.3 458.294 383.727 462.486 358.868 463.582C331.915 464.783 323.832 465.079 255.651 465.079C187.471 465.079 179.286 464.783 152.431 463.582C127.475 462.486 113.998 458.294 105.014 454.801C93.9361 450.706 83.8523 444.218 75.6675 435.733C67.1825 427.446 60.6939 417.464 56.5995 406.386C53.1057 397.402 48.9139 383.824 47.8181 358.969C46.6171 332.017 46.3208 323.929 46.3208 255.749C46.3208 187.568 46.6171 179.383 47.8181 152.532C48.9139 127.576 53.1057 114.1 56.5995 105.116C60.6939 94.0336 67.1825 83.9537 75.7689 75.765C84.0512 67.2799 94.0336 60.7914 105.116 56.7009C114.1 53.2071 127.677 49.0152 152.532 47.9156C179.485 46.7185 187.572 46.4182 255.749 46.4182C324.031 46.4182 332.114 46.7185 358.969 47.9156C383.925 49.0152 397.402 53.2071 406.386 56.7009C417.464 60.7914 427.548 67.2799 435.733 75.765C444.218 84.0512 450.706 94.0336 454.801 105.116C458.294 114.1 462.486 127.674 463.586 152.532C464.783 179.485 465.083 187.568 465.083 255.749C465.083 323.929 464.783 331.915 463.586 358.868Z" fill="#D6000D"/>
<path d="M255.55 124.281C183.08 124.281 124.281 183.076 124.281 255.55C124.281 328.024 183.08 386.819 255.55 386.819C328.024 386.819 386.819 328.024 386.819 255.55C386.819 183.076 328.024 124.281 255.55 124.281ZM255.55 340.701C208.535 340.701 170.399 302.569 170.399 255.55C170.399 208.531 208.535 170.399 255.55 170.399C302.569 170.399 340.701 208.531 340.701 255.55C340.701 302.569 302.569 340.701 255.55 340.701V340.701Z" fill="#D6000D"/>
<path d="M422.658 119.091C422.658 136.014 408.936 149.736 392.009 149.736C375.086 149.736 361.364 136.014 361.364 119.091C361.364 102.164 375.086 88.4458 392.009 88.4458C408.936 88.4458 422.658 102.164 422.658 119.091V119.091Z" fill="#D6000D"/>
</svg>
