<svg width="439" height="439" viewBox="0 0 439 439" fill="none" xmlns="http://www.w3.org/2000/svg">
<g clip-path="url(#clip0)">
<path d="M414.41 24.123C398.333 8.042 378.963 0 356.315 0H82.228C59.58 0 40.21 8.042 24.126 24.123C8.04499 40.207 0.00299072 59.576 0.00299072 82.225V356.309C0.00299072 378.956 8.04499 398.327 24.126 414.411C40.21 430.495 59.58 438.537 82.228 438.537H356.312C378.96 438.537 398.33 430.495 414.407 414.411C430.491 398.327 438.533 378.957 438.533 356.309V82.225C438.532 59.576 430.49 40.204 414.41 24.123ZM335.471 168.735C335.662 170.448 335.759 173.013 335.759 176.445C335.759 192.434 333.425 208.47 328.764 224.549C324.103 240.636 316.964 256.053 307.348 270.803C297.742 285.552 286.274 298.594 272.952 309.918C259.627 321.238 243.641 330.283 224.984 337.035C206.336 343.797 186.347 347.178 165.031 347.178C131.915 347.178 101.271 338.226 73.1 320.342C77.668 320.91 82.429 321.197 87.375 321.197C114.975 321.197 139.814 312.632 161.894 295.497C148.953 295.312 137.388 291.318 127.206 283.506C117.021 275.703 109.933 265.807 105.935 253.815C110.882 254.575 114.593 254.952 117.067 254.952C121.254 254.952 126.109 254.192 131.627 252.673C117.733 250.004 106.029 243.111 96.512 231.976C86.993 220.84 82.235 208.136 82.235 193.862V193.291C92.32 198.046 101.837 200.52 110.784 200.713C93.463 189.1 84.803 172.448 84.803 150.75C84.803 140.09 87.561 130.003 93.081 120.486C108.116 138.95 126.392 153.699 147.897 164.738C169.404 175.776 192.437 181.965 216.989 183.296C216.039 179.68 215.562 175.11 215.562 169.592C215.562 153.03 221.415 138.9 233.122 127.193C244.825 115.487 258.959 109.632 275.516 109.632C293.031 109.632 307.595 115.915 319.204 128.478C332.338 126.004 345.096 121.148 357.464 113.918C352.707 128.57 343.851 139.706 330.914 147.32C343.282 145.604 354.794 142.37 365.451 137.612C357.458 149.793 347.462 160.166 335.471 168.735Z" fill="#D6000D"/>
</g>
<defs>
<clipPath id="clip0">
<rect width="438.536" height="438.536" fill="white"/>
</clipPath>
</defs>
</svg>
